<?xml version="1.0" encoding="iso-8859-1"?><!-- Generator: Adobe Illustrator 19.1.1, SVG Export Plug-In . SVG Version: 6.00 Build 0)  --><svg xmlns="http://www.w3.org/2000/svg" xmlns:xlink="http://www.w3.org/1999/xlink" viewBox="0 0 50 50" width="50px" height="50px"><image style="display: none; overflow: visible" width="216" height="65" xlink:href="462A50B5.jpg"  transform="matrix(0.3,0,0,0.3,-1,17.8)"></image><path transform="matrix(1.4,0,0,1.4,-15.1,-9.4)" d="M 44.9 33.5 c -0.9 0.2 -2 0.3 -3 0.2 c -0.5 0 -1 -0.1 -1.4 -0.3 c -0.6 -0.3 -1 -0.7 -1.3 -1.3 C 38.9 31.4 38.7 30.6 38.7 29.8 c 0 -1.5 0 -7 0 -7 h -2 v -3 h 2 v -4 h 3 v 4 h 4 v 3 h -4 c 0 0 0 3.1 0 5 c 0 0.5 0 1.3 0.1 1.9 c 0 0.1 0 0.3 0.1 0.4 c 0.1 0.3 0.3 0.6 0.7 0.6 c 0.3 0.1 0.5 0.1 0.8 0.1 c 0.6 0 1.4 -0.1 2 -0.1 c 0.1 0 0.1 0 0.2 0 c 0.1 0.8 0.1 1.9 0.1 2.7 C 45.4 33.4 45.2 33.5 44.9 33.5 z"/><path transform="matrix(1.4,0,0,1.4,-8.6,-9.8)" d="M 29.4 29.4 c 0.4 -1.5 0.5 -3.1 0.6 -4.6 c 0 -1.2 0 -2.4 -0.2 -3.6 c -0.2 -1.1 -0.4 -2.2 -0.9 -3.2 c -0.8 -1.8 -2.1 -2.9 -4 -3.3 c -1.2 -0.3 -2.5 -0.4 -3.7 -0.3 c -0.8 0 -1.5 0.2 -2.3 0.4 c -1.7 0.5 -2.9 1.5 -3.7 3.1 c -0.3 0.6 -0.5 1.1 -0.6 1.7 c -0.5 1.6 -0.6 3.2 -0.6 4.9 c 0 1.1 0.1 2.2 0.2 3.3 c 0.2 1 0.4 2 0.8 3 c 0.7 1.7 2 2.8 3.9 3.3 c 1.6 0.4 3.2 0.5 4.9 0.2 c 0.8 1.3 1.7 2.7 2.5 4.1 c 1 -0.5 2 -0.9 3 -1.4 c -0.8 -1.3 -1.6 -2.5 -2.4 -3.8 c 0.3 -0.3 0.7 -0.6 1 -0.9 C 28.6 31.5 29.1 30.5 29.4 29.4 z M 26.5 28.4 c -0.1 0.3 -0.2 0.5 -0.3 0.8 c -0.4 1 -1.3 1.7 -2.4 1.9 c -1.2 0.3 -2.4 0.3 -3.6 0 c -1.3 -0.3 -2.1 -1 -2.6 -2.1 c -0.4 -0.9 -0.6 -1.8 -0.6 -2.7 c -0.1 -1 -0.1 -2.1 -0.1 -3.1 c 0 -1.1 0.2 -2.2 0.6 -3.3 c 0.1 -0.2 0.2 -0.4 0.3 -0.7 c 0.5 -0.9 1.3 -1.4 2.3 -1.7 c 1.2 -0.3 2.4 -0.3 3.6 0 c 1 0.3 1.8 0.8 2.2 1.6 c 0.4 0.7 0.6 1.5 0.7 2.3 c 0.1 1 0.2 2 0.2 2.6 C 26.9 25.8 26.9 27.1 26.5 28.4 z"/><text font-weight="bold" transform="matrix(1.4,0,0,1.4,-5.6,-9.9)" fill="rgb(0, 0, 0)" font-size="28.1" x="3" y="34.2" textLength="22.4">
        !
    </text>
</svg>