<?xml version="1.0" encoding="iso-8859-1"?><!-- Generator: Adobe Illustrator 19.1.1, SVG Export Plug-In . SVG Version: 6.00 Build 0)  --><svg xmlns="http://www.w3.org/2000/svg" xmlns:xlink="http://www.w3.org/1999/xlink" viewBox="0 0 50 50" width="50px" height="50px"><image style="display:none;overflow:visible;" width="216" height="65" xlink:href="462A50B5.jpg"  transform="matrix(0.25 0 0 0.25 -1 17.75)"></image><path style="fill:none;stroke:#000000;stroke-width:2;stroke-miterlimit:10;" d="M47,9H9.433C9.171,9,8.989,9.076,8.806,9.259c-1.836,1.826-3.679,3.645-5.527,5.459C3.087,14.906,3,15.093,3,15.366c0.007,8.396,0.006,25.445,0.006,25.628c0.184,0,25.178-0.001,37.545,0.006c0.289,0,0.487-0.091,0.688-0.29c1.818-1.81,3.644-3.612,5.476-5.408C46.918,35.102,47,34.902,47,34.618C46.993,26.246,47,9,47,9z"/><path d="M37.19,33.738c-0.934,0.166-2.037,0.315-2.986,0.23c-0.496-0.045-0.979-0.147-1.44-0.344c-0.604-0.259-1.036-0.685-1.295-1.292C31.162,31.614,31,30.769,31,30c0-1.5,0-7,0-7h-2v-3h2v-4h3v4h4v3h-4c0,0-0.012,3.109,0,5c0.003,0.53,0.019,1.346,0.06,1.875c0.011,0.14,0.049,0.279,0.086,0.416c0.092,0.337,0.313,0.562,0.652,0.631c0.264,0.054,0.538,0.083,0.806,0.078c0.626-0.01,1.416-0.108,2.041-0.132c0.057-0.002,0.115,0.009,0.221,0.018c0.066,0.785,0.108,1.882,0.132,2.697C37.716,33.638,37.453,33.691,37.19,33.738z"/><path d="M26.415,29.127c0.434-1.513,0.543-3.067,0.579-4.627c0.028-1.206-0.047-2.41-0.214-3.606c-0.156-1.114-0.424-2.199-0.885-3.233c-0.784-1.758-2.12-2.86-4-3.342c-1.234-0.316-2.487-0.352-3.747-0.299c-0.766,0.032-1.519,0.159-2.255,0.376c-1.675,0.493-2.928,1.485-3.658,3.067c-0.255,0.552-0.472,1.126-0.644,1.708c-0.471,1.592-0.569,3.236-0.588,4.881c-0.013,1.107,0.053,2.216,0.217,3.314c0.153,1.027,0.397,2.03,0.807,2.991c0.743,1.738,2.047,2.827,3.885,3.306c1.595,0.417,3.21,0.469,4.876,0.24c0.834,1.349,1.678,2.716,2.532,4.097c1.01-0.467,1.975-0.912,2.962-1.368c-0.816-1.298-1.601-2.549-2.38-3.789c0.339-0.305,0.677-0.572,0.971-0.88C25.644,31.158,26.111,30.184,26.415,29.127z M23.537,28.075c-0.079,0.272-0.177,0.541-0.285,0.805c-0.422,1.031-1.258,1.661-2.434,1.931c-1.195,0.275-2.399,0.277-3.597,0.009c-1.258-0.281-2.108-0.966-2.553-2.057c-0.359-0.88-0.55-1.792-0.602-2.72c-0.058-1.043-0.082-2.089-0.053-3.132c0.031-1.128,0.196-2.247,0.608-3.324c0.085-0.222,0.19-0.438,0.302-0.65c0.466-0.885,1.251-1.442,2.296-1.7c1.181-0.291,2.372-0.29,3.553,0c1.018,0.25,1.777,0.795,2.249,1.648c0.407,0.736,0.635,1.521,0.738,2.328c0.125,0.978,0.187,1.963,0.242,2.575C23.947,25.476,23.91,26.791,23.537,28.075z"/></svg>