<?xml version="1.0" encoding="iso-8859-1"?><!-- Generator: Adobe Illustrator 19.1.1, SVG Export Plug-In . SVG Version: 6.00 Build 0)  --><svg xmlns="http://www.w3.org/2000/svg" xmlns:xlink="http://www.w3.org/1999/xlink" viewBox="0 0 50 50" width="50px" height="50px"><image style="display: none; overflow: visible" width="216" height="65" xlink:href="462A50B5.jpg"  transform="matrix(0.3,0,0,0.3,-1,17.8)"></image><path style="fill: none; stroke: #000000; stroke-width: 2; stroke-miterlimit: 10" d="M 47 8.7 H 9.4 C 9.2 8.7 9 8.8 8.8 9 c -1.8 1.8 -3.7 3.6 -5.5 5.5 C 3.1 14.6 3 14.8 3 15.1 c 0 8.4 0 25.4 0 25.6 c 0.2 0 25.2 0 37.5 0 c 0.3 0 0.5 -0.1 0.7 -0.3 c 1.8 -1.8 3.6 -3.6 5.5 -5.4 C 46.9 34.8 47 34.6 47 34.3 C 47 25.9 47 8.7 47 8.7 z"/><text stroke="rgb(0, 0, 0)" font-family="'Hack Nerd Font'" fill="rgb(0, 0, 0)" transform="matrix(1,0,0,1,0,0)" x="4.9" y="33" textLength="40.2" font-size="23.4">
        Qtr
    </text>
</svg>